<svg width="911" height="37" viewBox="0 0 911 37" fill="none" xmlns="http://www.w3.org/2000/svg">
<line y1="18.5" x2="423" y2="18.5" stroke="#54A1F8" stroke-opacity="0.4"/>
<line x1="488" y1="18.5" x2="911" y2="18.5" stroke="#54A1F8" stroke-opacity="0.4"/>
<path d="M438.5 13L445 6.5L438.5 0L432 6.5L438.5 13Z" fill="#54A1F8" fill-opacity="0.4"/>
<path d="M472.5 13L479 6.5L472.5 0L466 6.5L472.5 13Z" fill="#54A1F8" fill-opacity="0.4"/>
<path d="M455.5 20L462 13.5L455.5 7L449 13.5L455.5 20Z" fill="#54A1F8" fill-opacity="0.4"/>
<path d="M472.5 30L479 23.5L472.5 17L466 23.5L472.5 30Z" fill="#54A1F8" fill-opacity="0.4"/>
<path d="M438.5 30L445 23.5L438.5 17L432 23.5L438.5 30Z" fill="#54A1F8" fill-opacity="0.4"/>
<path d="M455.5 37L462 30.5L455.5 24L449 30.5L455.5 37Z" fill="#54A1F8" fill-opacity="0.4"/>
</svg>
