<svg width="384" height="533" viewBox="0 0 384 533" fill="none" xmlns="http://www.w3.org/2000/svg">
<mask id="path-1-outside-1_48_92" maskUnits="userSpaceOnUse" x="-0.941307" y="-0.135534" width="494.324" height="539.148" fill="black">
<rect fill="white" x="-0.941307" y="-0.135534" width="494.324" height="539.148"/>
<path d="M252.692 35.7402C252.535 35.1094 252.72 34.5052 253.247 33.9276C253.773 33.3502 254.562 32.9307 255.613 32.6691L378.93 1.99372C379.982 1.7322 380.77 1.75943 381.295 2.0754C381.978 2.1288 382.397 2.47093 382.554 3.10182C382.71 3.7327 382.525 4.33688 381.999 4.91437C381.631 5.22928 380.684 5.91137 379.158 6.96065L371.978 11.761C365.717 16.2208 359.294 23.6235 352.708 33.9693C346.07 44.1049 339.797 55.7124 333.889 68.792C327.929 81.6613 322.704 94.7943 318.214 108.191L202.69 455.087C201.37 458.764 200.392 462.468 199.755 466.199C199.117 469.93 198.637 474.292 198.313 479.284L196.928 504.747C196.553 508.635 195.339 511.84 193.285 514.36C191.39 516.618 188.55 518.217 184.765 519.159L135.249 531.476C131.885 532.313 129.206 531.863 127.213 530.126C125.429 528.337 124.542 525.209 124.55 520.741L125.318 487.395C125.377 484.031 125.146 480.851 124.626 477.855C124.264 474.596 123.822 471.915 123.3 469.812C122.416 464.45 120.541 455.539 117.673 443.08C115.016 430.568 111.732 415.532 107.823 397.974C103.861 380.204 99.5864 361.173 94.9988 340.881C90.3589 320.378 85.6148 299.454 80.7663 278.11C75.9177 256.766 71.2518 236.158 66.7685 216.286C62.233 196.203 58.0358 177.935 54.1769 161.48C50.4761 144.762 47.2693 130.935 44.5566 120C43.0469 112.115 41.1388 106.673 38.8322 103.674C36.5257 100.676 32.9553 99.3311 28.1209 99.6406L6.44686 100.008C4.66045 100.006 3.42577 99.9786 2.74282 99.9252C2.21797 99.6092 1.8512 99.0306 1.64253 98.1895C1.43386 97.3483 1.61882 96.7441 2.19743 96.3769C2.93413 95.7471 3.93325 95.2753 5.19481 94.9615L166.358 54.8716C167.41 54.6101 168.198 54.6373 168.723 54.9533C169.406 55.0067 169.825 55.3488 169.982 55.9797C170.138 56.6106 169.953 57.2147 169.427 57.7922C169.111 58.3174 168.164 58.9995 166.586 59.8385L137.245 72.4956C131.567 74.8012 128.04 78.5811 126.664 83.8351C125.447 88.8266 125.594 94.8183 127.105 101.81C129.815 114.532 132.811 128.858 136.093 144.787C139.374 160.716 142.969 177.906 146.877 196.358C150.943 214.548 155.165 233.816 159.542 254.161C163.868 274.295 168.27 295.192 172.75 316.851C177.441 338.458 182.157 360.617 186.898 383.327C191.849 405.985 196.747 428.88 201.592 452.011L191.232 472.338L312.701 106.213C317.719 91.3458 318.634 78.8383 315.447 68.6909C312.26 58.5434 306.652 50.7844 298.622 45.4139C290.541 39.833 281.482 37.0627 271.447 37.1031L257.496 37.5593C254.659 37.8186 253.057 37.2123 252.692 35.7402Z"/>
</mask>
<path d="M252.692 35.7402C252.535 35.1094 252.72 34.5052 253.247 33.9276C253.773 33.3502 254.562 32.9307 255.613 32.6691L378.93 1.99372C379.982 1.7322 380.77 1.75943 381.295 2.0754C381.978 2.1288 382.397 2.47093 382.554 3.10182C382.71 3.7327 382.525 4.33688 381.999 4.91437C381.631 5.22928 380.684 5.91137 379.158 6.96065L371.978 11.761C365.717 16.2208 359.294 23.6235 352.708 33.9693C346.07 44.1049 339.797 55.7124 333.889 68.792C327.929 81.6613 322.704 94.7943 318.214 108.191L202.69 455.087C201.37 458.764 200.392 462.468 199.755 466.199C199.117 469.93 198.637 474.292 198.313 479.284L196.928 504.747C196.553 508.635 195.339 511.84 193.285 514.36C191.39 516.618 188.55 518.217 184.765 519.159L135.249 531.476C131.885 532.313 129.206 531.863 127.213 530.126C125.429 528.337 124.542 525.209 124.55 520.741L125.318 487.395C125.377 484.031 125.146 480.851 124.626 477.855C124.264 474.596 123.822 471.915 123.3 469.812C122.416 464.45 120.541 455.539 117.673 443.08C115.016 430.568 111.732 415.532 107.823 397.974C103.861 380.204 99.5864 361.173 94.9988 340.881C90.3589 320.378 85.6148 299.454 80.7663 278.11C75.9177 256.766 71.2518 236.158 66.7685 216.286C62.233 196.203 58.0358 177.935 54.1769 161.48C50.4761 144.762 47.2693 130.935 44.5566 120C43.0469 112.115 41.1388 106.673 38.8322 103.674C36.5257 100.676 32.9553 99.3311 28.1209 99.6406L6.44686 100.008C4.66045 100.006 3.42577 99.9786 2.74282 99.9252C2.21797 99.6092 1.8512 99.0306 1.64253 98.1895C1.43386 97.3483 1.61882 96.7441 2.19743 96.3769C2.93413 95.7471 3.93325 95.2753 5.19481 94.9615L166.358 54.8716C167.41 54.6101 168.198 54.6373 168.723 54.9533C169.406 55.0067 169.825 55.3488 169.982 55.9797C170.138 56.6106 169.953 57.2147 169.427 57.7922C169.111 58.3174 168.164 58.9995 166.586 59.8385L137.245 72.4956C131.567 74.8012 128.04 78.5811 126.664 83.8351C125.447 88.8266 125.594 94.8183 127.105 101.81C129.815 114.532 132.811 128.858 136.093 144.787C139.374 160.716 142.969 177.906 146.877 196.358C150.943 214.548 155.165 233.816 159.542 254.161C163.868 274.295 168.27 295.192 172.75 316.851C177.441 338.458 182.157 360.617 186.898 383.327C191.849 405.985 196.747 428.88 201.592 452.011L191.232 472.338L312.701 106.213C317.719 91.3458 318.634 78.8383 315.447 68.6909C312.26 58.5434 306.652 50.7844 298.622 45.4139C290.541 39.833 281.482 37.0627 271.447 37.1031L257.496 37.5593C254.659 37.8186 253.057 37.2123 252.692 35.7402Z" fill="url(#paint0_linear_48_92)"/>
<path d="M253.247 33.9276L252.508 33.254L252.508 33.254L253.247 33.9276ZM381.295 2.0754L380.779 2.93241L380.981 3.05411L381.216 3.07251L381.295 2.0754ZM381.999 4.91437L382.648 5.6745L382.696 5.63405L382.738 5.58805L381.999 4.91437ZM379.158 6.96065L379.713 7.79216L379.724 7.78467L379.158 6.96065ZM371.978 11.761L371.422 10.9295L371.41 10.9378L371.398 10.9464L371.978 11.761ZM352.708 33.9693L353.544 34.5171L353.551 34.5062L352.708 33.9693ZM333.889 68.792L334.796 69.212L334.8 69.2034L333.889 68.792ZM318.214 108.191L317.266 107.874L317.265 107.875L318.214 108.191ZM202.69 455.087L203.631 455.424L203.635 455.413L203.639 455.402L202.69 455.087ZM199.755 466.199L198.769 466.031L199.755 466.199ZM198.313 479.284L197.315 479.22L197.314 479.23L198.313 479.284ZM196.928 504.747L197.923 504.842L197.925 504.821L197.926 504.8L196.928 504.747ZM193.285 514.36L194.051 515.003L194.056 514.997L194.06 514.992L193.285 514.36ZM127.213 530.126L126.504 530.832L126.529 530.857L126.556 530.88L127.213 530.126ZM124.55 520.741L123.55 520.719L123.55 520.729L123.55 520.74L124.55 520.741ZM125.318 487.395L126.318 487.417L126.318 487.411L125.318 487.395ZM124.626 477.855L123.632 477.966L123.635 477.996L123.641 478.026L124.626 477.855ZM123.3 469.812L122.314 469.975L122.32 470.014L122.33 470.053L123.3 469.812ZM117.673 443.08L116.695 443.288L116.697 443.296L116.699 443.305L117.673 443.08ZM107.823 397.974L108.799 397.756L108.799 397.755L107.823 397.974ZM94.9988 340.881L95.974 340.66L95.9739 340.659L94.9988 340.881ZM66.7685 216.286L67.7438 216.065L67.7438 216.065L66.7685 216.286ZM54.1769 161.48L53.2006 161.696L53.2035 161.708L54.1769 161.48ZM44.5566 120L43.5746 120.189L43.5797 120.215L43.5862 120.242L44.5566 120ZM38.8322 103.674L39.6248 103.064L38.8322 103.674ZM28.1209 99.6406L28.1373 100.641L28.1608 100.64L28.1842 100.639L28.1209 99.6406ZM6.44686 100.008L6.44508 101.009L6.45417 101.009L6.46326 101.009L6.44686 100.008ZM2.74283 99.9252L2.22689 100.782L2.42906 100.904L2.66435 100.922L2.74283 99.9252ZM2.19743 96.3769L2.73273 97.2213L2.79274 97.1832L2.84677 97.137L2.19743 96.3769ZM168.723 54.9533L168.207 55.8103L168.409 55.932L168.644 55.9504L168.723 54.9533ZM169.427 57.7922L168.688 57.1186L168.622 57.1918L168.57 57.2766L169.427 57.7922ZM166.586 59.8385L166.982 60.7569L167.019 60.7407L167.055 60.7216L166.586 59.8385ZM137.245 72.4956L137.621 73.4222L137.631 73.4182L137.641 73.4139L137.245 72.4956ZM126.664 83.8351L125.697 83.5823L125.695 83.5904L125.693 83.5986L126.664 83.8351ZM127.105 101.81L128.083 101.601L128.083 101.598L127.105 101.81ZM136.093 144.787L137.072 144.584L136.093 144.787ZM146.877 196.358L145.899 196.566L145.901 196.577L146.877 196.358ZM159.542 254.161L160.52 253.95L160.52 253.95L159.542 254.161ZM172.75 316.851L171.771 317.054L171.773 317.064L172.75 316.851ZM186.898 383.327L185.919 383.532L185.921 383.541L186.898 383.327ZM201.592 452.011L202.483 452.465L202.643 452.15L202.571 451.805L201.592 452.011ZM191.232 472.338L190.283 472.024L192.123 472.792L191.232 472.338ZM312.701 106.213L311.753 105.894L311.752 105.899L312.701 106.213ZM298.622 45.4139L298.054 46.237L298.06 46.2412L298.066 46.2454L298.622 45.4139ZM271.447 37.1031L271.443 36.103L271.429 36.1031L271.415 36.1035L271.447 37.1031ZM257.496 37.5593L257.464 36.5597L257.435 36.5606L257.406 36.5633L257.496 37.5593ZM252.692 35.7402L253.662 35.4988C253.603 35.2611 253.632 34.9889 253.985 34.6013L253.247 33.9276L252.508 33.254C251.809 34.0214 251.467 34.9576 251.721 35.9816L252.692 35.7402ZM253.247 33.9276L253.985 34.6013C254.337 34.2161 254.923 33.8714 255.854 33.6397L255.613 32.6691L255.373 31.6986C254.201 31.9899 253.21 32.4842 252.508 33.254L253.247 33.9276ZM255.613 32.6691L255.854 33.6397L379.171 2.9643L378.93 1.99372L378.69 1.02314L255.373 31.6986L255.613 32.6691ZM378.93 1.99372L379.171 2.9643C380.147 2.72154 380.603 2.82638 380.779 2.93241L381.295 2.0754L381.811 1.21841C380.937 0.692485 379.816 0.742865 378.69 1.02314L378.93 1.99372ZM381.295 2.0754L381.216 3.07251C381.409 3.08757 381.475 3.13525 381.49 3.14752C381.5 3.15625 381.547 3.19458 381.583 3.34321L382.554 3.10181L383.524 2.86042C383.405 2.37816 383.163 1.92998 382.753 1.59659C382.349 1.26672 381.863 1.11664 381.373 1.07829L381.295 2.0754ZM382.554 3.10181L381.583 3.34321C381.642 3.58094 381.614 3.85308 381.26 4.24069L381.999 4.91437L382.738 5.58805C383.437 4.82068 383.778 3.88445 383.524 2.86042L382.554 3.10181ZM381.999 4.91437L381.35 4.15422C381.03 4.42754 380.132 5.07714 378.592 6.13661L379.158 6.96065L379.724 7.78467C381.235 6.74562 382.231 6.03101 382.648 5.6745L381.999 4.91437ZM379.158 6.96065L378.603 6.12921L371.422 10.9295L371.978 11.761L372.533 12.5924L379.713 7.79209L379.158 6.96065ZM371.978 11.761L371.398 10.9464C364.989 15.5121 358.484 23.0351 351.865 33.4325L352.708 33.9693L353.551 34.5062C360.104 24.212 366.446 16.9294 372.557 12.5755L371.978 11.761ZM352.708 33.9693L351.872 33.4216C345.2 43.6076 338.903 55.2621 332.978 68.3806L333.889 68.792L334.8 69.2034C340.69 56.1628 346.939 44.6021 353.544 34.5171L352.708 33.9693ZM333.889 68.792L332.982 68.372C327.006 81.2746 321.768 94.4419 317.266 107.874L318.214 108.191L319.162 108.508C323.64 95.1468 328.851 82.048 334.796 69.212L333.889 68.792ZM318.214 108.191L317.265 107.875L201.742 454.771L202.69 455.087L203.639 455.402L319.163 108.507L318.214 108.191ZM202.69 455.087L201.749 454.749C200.41 458.48 199.416 462.241 198.769 466.031L199.755 466.199L200.74 466.367C201.367 462.696 202.33 459.048 203.631 455.424L202.69 455.087ZM199.755 466.199L198.769 466.031C198.125 469.805 197.641 474.203 197.315 479.22L198.313 479.284L199.31 479.348C199.633 474.38 200.11 470.055 200.74 466.367L199.755 466.199ZM198.313 479.284L197.314 479.23L195.929 504.693L196.928 504.747L197.926 504.8L199.311 479.338L198.313 479.284ZM196.928 504.747L195.932 504.651C195.573 508.384 194.416 511.39 192.51 513.728L193.285 514.36L194.06 514.992C196.262 512.29 197.533 508.887 197.923 504.842L196.928 504.747ZM193.285 514.36L192.52 513.717C190.798 515.768 188.17 517.281 184.524 518.188L184.765 519.159L185.006 520.129C188.93 519.153 191.981 517.468 194.051 515.003L193.285 514.36ZM184.765 519.159L184.524 518.188L135.008 530.505L135.249 531.476L135.49 532.447L185.006 520.129L184.765 519.159ZM135.249 531.476L135.008 530.505C131.852 531.291 129.543 530.83 127.87 529.372L127.213 530.126L126.556 530.88C128.869 532.896 131.918 533.335 135.49 532.447L135.249 531.476ZM127.213 530.126L127.921 529.42C126.425 527.919 125.542 525.132 125.549 520.743L124.55 520.741L123.55 520.74C123.542 525.285 124.434 528.755 126.504 530.832L127.213 530.126ZM124.55 520.741L125.549 520.764L126.318 487.417L125.318 487.395L124.318 487.372L123.55 520.719L124.55 520.741ZM125.318 487.395L126.318 487.411C126.377 483.991 126.143 480.748 125.611 477.683L124.626 477.855L123.641 478.026C124.149 480.954 124.376 484.071 124.318 487.378L125.318 487.395ZM124.626 477.855L125.619 477.744C125.255 474.461 124.807 471.732 124.271 469.57L123.3 469.812L122.33 470.053C122.837 472.097 123.273 474.731 123.632 477.966L124.626 477.855ZM123.3 469.812L124.287 469.649C123.397 464.253 121.515 455.315 118.647 442.855L117.673 443.08L116.699 443.305C119.566 455.763 121.436 464.647 122.314 469.975L123.3 469.812ZM117.673 443.08L118.651 442.871C115.993 430.355 112.709 415.316 108.799 397.756L107.823 397.974L106.847 398.191C110.756 415.748 114.039 430.78 116.695 443.288L117.673 443.08ZM107.823 397.974L108.799 397.755C104.837 379.985 100.562 360.953 95.974 340.66L94.9988 340.881L94.0235 341.102C98.611 361.394 102.885 380.424 106.847 398.192L107.823 397.974ZM94.9988 340.881L95.9739 340.659C91.334 320.156 86.5898 299.232 81.7413 277.888L80.7663 278.11L79.7913 278.332C84.6397 299.676 89.3838 320.599 94.0236 341.102L94.9988 340.881ZM80.7663 278.11L81.7413 277.888C76.8929 256.544 72.227 235.937 67.7438 216.065L66.7685 216.286L65.7932 216.506C70.2766 236.379 74.9426 256.988 79.7913 278.332L80.7663 278.11ZM66.7685 216.286L67.7438 216.065C63.2078 195.98 59.01 177.709 55.1504 161.251L54.1769 161.48L53.2035 161.708C57.0616 178.16 61.2582 196.426 65.7932 216.507L66.7685 216.286ZM54.1769 161.48L55.1531 161.263C51.4513 144.541 48.2426 130.705 45.527 119.759L44.5566 120L43.5862 120.242C46.2961 131.166 49.5009 144.983 53.2007 161.696L54.1769 161.48ZM44.5566 120L45.5386 119.812C44.0254 111.908 42.0848 106.262 39.6248 103.064L38.8322 103.674L38.0397 104.284C40.1927 107.083 42.0684 112.322 43.5746 120.189L44.5566 120ZM38.8322 103.674L39.6248 103.064C37.0589 99.7283 33.1196 98.3184 28.0576 98.6425L28.1209 99.6406L28.1842 100.639C32.791 100.344 35.9925 101.623 38.0397 104.284L38.8322 103.674ZM28.1209 99.6406L28.1045 98.6406L6.43045 99.0085L6.44686 100.008L6.46326 101.009L28.1373 100.641L28.1209 99.6406ZM6.44686 100.008L6.44863 99.0084C4.65989 99.0062 3.46103 98.9781 2.82129 98.9281L2.74283 99.9252L2.66435 100.922C3.39051 100.979 4.66101 101.006 6.44508 101.009L6.44686 100.008ZM2.74283 99.9252L3.25876 99.0682C3.04116 98.9372 2.78452 98.6396 2.61296 97.9481L1.64253 98.1895L0.672108 98.4309C0.917897 99.4216 1.39477 100.281 2.22689 100.782L2.74283 99.9252ZM1.64253 98.1895L2.61296 97.9481C2.53667 97.6405 2.55756 97.4736 2.58076 97.3978C2.59723 97.344 2.62663 97.2886 2.73273 97.2213L2.19743 96.3769L1.66212 95.5324C1.18963 95.8323 0.837237 96.2626 0.668735 96.8131C0.506982 97.3415 0.53972 97.8972 0.672108 98.4309L1.64253 98.1895ZM2.19743 96.3769L2.84677 97.137C3.4322 96.6366 4.27559 96.2206 5.43559 95.932L5.19481 94.9615L4.95403 93.9909C3.59092 94.33 2.43605 94.8576 1.54808 95.6167L2.19743 96.3769ZM5.19481 94.9615L5.43559 95.932L166.599 55.8422L166.358 54.8716L166.118 53.901L4.95403 93.9909L5.19481 94.9615ZM166.358 54.8716L166.599 55.8422C167.575 55.5994 168.031 55.7042 168.207 55.8103L168.723 54.9533L169.239 54.0963C168.365 53.5703 167.244 53.6207 166.118 53.901L166.358 54.8716ZM168.723 54.9533L168.644 55.9504C168.837 55.9654 168.903 56.0131 168.918 56.0254C168.928 56.0341 168.975 56.0724 169.011 56.2211L169.982 55.9797L170.952 55.7383C170.833 55.256 170.591 54.8078 170.182 54.4745C169.777 54.1446 169.292 53.9945 168.801 53.9562L168.723 54.9533ZM169.982 55.9797L169.011 56.2211C169.07 56.4588 169.042 56.7309 168.688 57.1186L169.427 57.7922L170.166 58.4659C170.865 57.6986 171.206 56.7623 170.952 55.7383L169.982 55.9797ZM169.427 57.7922L168.57 57.2766C168.52 57.3603 168.341 57.5657 167.896 57.8862C167.473 58.1909 166.885 58.5473 166.117 58.9554L166.586 59.8385L167.055 60.7216C167.865 60.2907 168.54 59.8866 169.064 59.5092C169.566 59.1476 170.018 58.7493 170.283 58.3078L169.427 57.7922ZM166.586 59.8385L166.191 58.9202L136.85 71.5772L137.245 72.4956L137.641 73.4139L166.982 60.7569L166.586 59.8385ZM137.245 72.4956L136.87 71.5689C130.942 73.9757 127.164 77.9805 125.697 83.5823L126.664 83.8351L127.632 84.088C128.916 79.1817 132.192 75.6267 137.621 73.4222L137.245 72.4956ZM126.664 83.8351L125.693 83.5986C124.429 88.7832 124.597 94.9368 126.128 102.022L127.105 101.81L128.083 101.598C126.592 94.6998 126.466 88.8699 127.636 84.0716L126.664 83.8351ZM127.105 101.81L126.128 102.019C128.837 114.739 131.832 129.062 135.113 144.989L136.093 144.787L137.072 144.584C133.79 128.654 130.793 114.326 128.083 101.601L127.105 101.81ZM136.093 144.787L135.113 144.989C138.396 160.92 141.991 178.112 145.899 196.566L146.877 196.358L147.855 196.151C143.948 177.7 140.353 160.511 137.072 144.584L136.093 144.787ZM146.877 196.358L145.901 196.577C149.967 214.764 154.188 234.029 158.565 254.372L159.542 254.161L160.52 253.95C156.142 233.602 151.92 214.332 147.853 196.14L146.877 196.358ZM159.542 254.161L158.565 254.371C162.889 274.503 167.292 295.398 171.771 317.054L172.75 316.851L173.73 316.648C169.249 294.987 164.846 274.087 160.52 253.95L159.542 254.161ZM172.75 316.851L171.773 317.064C176.463 338.668 181.178 360.824 185.919 383.532L186.898 383.327L187.876 383.122C183.135 360.409 178.418 338.248 173.727 316.638L172.75 316.851ZM186.898 383.327L185.921 383.541C190.871 406.196 195.769 429.088 200.614 452.217L201.592 452.011L202.571 451.805C197.725 428.671 192.826 405.774 187.874 383.113L186.898 383.327ZM201.592 452.011L200.702 451.557L190.341 471.884L191.232 472.338L192.123 472.792L202.483 452.465L201.592 452.011ZM191.232 472.338L192.181 472.653L313.65 106.528L312.701 106.213L311.752 105.899L190.283 472.024L191.232 472.338ZM312.701 106.213L313.648 106.533C318.703 91.5554 319.675 78.8155 316.401 68.3906L315.447 68.6909L314.493 68.9911C317.593 78.861 316.734 91.1362 311.753 105.894L312.701 106.213ZM315.447 68.6909L316.401 68.3906C313.153 58.0492 307.416 50.0924 299.178 44.5824L298.622 45.4139L298.066 46.2454C305.887 51.4764 311.367 59.0377 314.493 68.9911L315.447 68.6909ZM298.622 45.4139L299.191 44.5907C290.937 38.8911 281.678 36.0618 271.443 36.103L271.447 37.1031L271.45 38.1033C281.286 38.0637 290.144 40.7748 298.054 46.237L298.622 45.4139ZM271.447 37.1031L271.415 36.1035L257.464 36.5597L257.496 37.5593L257.528 38.5589L271.479 38.1028L271.447 37.1031ZM257.496 37.5593L257.406 36.5633C256.05 36.6872 255.116 36.5888 254.521 36.3636C253.981 36.1591 253.755 35.8713 253.662 35.4988L252.692 35.7402L251.721 35.9816C251.994 37.0812 252.751 37.8326 253.812 38.2344C254.819 38.6156 256.105 38.6907 257.587 38.5553L257.496 37.5593Z" fill="#54A1F8" mask="url(#path-1-outside-1_48_92)"/>
<defs>
<linearGradient id="paint0_linear_48_92" x1="112.878" y1="-117.31" x2="266.398" y2="507.902" gradientUnits="userSpaceOnUse">
<stop stop-color="#45A8FF"/>
<stop offset="1" stop-color="#3B84D6"/>
</linearGradient>
</defs>
</svg>
